<svg height="256px" width="256px" version="1.1" id="Layer_1" xmlns="http://www.w3.org/2000/svg" xmlns:xlink="http://www.w3.org/1999/xlink" viewBox="0 0 512 512" xml:space="preserve" fill="#000000"><g id="SVGRepo_bgCarrier" stroke-width="0"></g><g id="SVGRepo_tracerCarrier" stroke-linecap="round" stroke-linejoin="round"></g><g id="SVGRepo_iconCarrier"> <polygon style="fill:#E0E0E2;" points="53.285,160.922 53.285,365.722 306.677,512 484.056,409.6 484.056,204.8 306.677,307.2 "></polygon> <polygon style="fill:#C6C5CB;" points="484.056,204.8 484.056,409.6 306.677,512 306.677,307.2 "></polygon> <polygon style="fill:#C60024;" points="40.616,109.714 230.665,0 496.725,153.593 496.725,197.485 306.677,307.2 40.634,153.607 "></polygon> <polygon style="fill:#A50020;" points="40.616,109.714 40.634,153.607 306.677,307.2 306.677,263.307 "></polygon> <polygon style="fill:#820018;" points="306.677,307.2 496.725,197.485 496.725,153.593 306.677,263.307 "></polygon> <polygon style="fill:#720017;" points="65.953,109.714 230.665,14.629 471.388,153.593 306.677,248.678 "></polygon> <polygon style="fill:#820018;" points="78.623,117.028 230.665,29.258 230.665,14.629 65.953,109.714 "></polygon> <polygon style="fill:#A50020;" points="230.665,29.258 458.719,160.906 471.388,153.593 230.665,14.629 "></polygon> <polygon style="fill:#E0E0E2;" points="254.635,140.453 323.047,100.955 391.459,140.453 391.459,170.48 323.047,209.977 254.635,170.48 "></polygon> <g> <path style="fill:#C6C5CB;" d="M305.115,130.104c-9.866,5.696-9.875,15.011-0.021,20.701c9.855,5.69,25.999,5.69,35.876,0 s9.887-15.005,0.021-20.701C331.125,124.408,314.981,124.408,305.115,130.104z"></path> <polygon style="fill:#C6C5CB;" points="254.635,140.453 254.635,170.48 323.047,209.977 323.047,179.951 "></polygon> </g> <polygon style="fill:#ACABB1;" points="323.047,209.977 391.459,170.48 391.459,140.453 323.047,179.951 "></polygon> <path style="fill:#C6C5CB;" d="M209.989,123.455v-11.349l0,0c0.005-3.753-2.459-7.508-7.393-10.356 c-9.866-5.696-26.01-5.696-35.876,0c-4.934,2.848-7.403,6.603-7.405,10.356l0,0v11.349l0,0c-0.006,3.753,2.454,7.507,7.384,10.353 c9.855,5.69,25.998,5.69,35.876,0C207.516,130.963,209.987,127.21,209.989,123.455L209.989,123.455z"></path> <path style="fill:#E0E0E2;" d="M166.721,101.75c-9.866,5.696-9.875,15.011-0.021,20.701c9.855,5.69,25.998,5.69,35.876,0 c9.878-5.69,9.887-15.005,0.021-20.701C192.73,96.054,176.587,96.054,166.721,101.75z"></path> <path style="fill:#C6C5CB;" d="M266.006,91.114V79.766l0,0c0.005-3.753-2.459-7.508-7.393-10.356c-9.866-5.696-26.01-5.696-35.876,0 c-4.934,2.848-7.403,6.603-7.405,10.356l0,0v11.349l0,0c-0.006,3.753,2.454,7.507,7.384,10.353c9.855,5.69,25.998,5.69,35.876,0 C263.533,98.622,266.004,94.869,266.006,91.114L266.006,91.114z"></path> <path style="fill:#E0E0E2;" d="M222.736,69.409c-9.866,5.696-9.875,15.011-0.021,20.701c9.855,5.69,25.998,5.69,35.876,0 s9.887-15.005,0.021-20.701C248.746,63.714,232.602,63.713,222.736,69.409z"></path> <g> <polygon style="fill:#59A4FF;" points="78.642,234.042 78.618,307.191 141.983,343.762 141.983,270.619 "></polygon> <polygon style="fill:#59A4FF;" points="216.517,314.508 216.493,387.657 279.858,424.228 279.858,351.085 "></polygon> </g> <polygon style="fill:#A50020;" points="154.634,424.228 154.634,277.943 205.328,307.2 205.328,453.489 "></polygon> <polygon style="fill:#59A4FF;" points="164.128,291.677 164.128,356.603 194.619,374.238 194.637,309.301 "></polygon> <path style="fill:#EEBF00;" d="M196.852,381.318c0,0.19,0,14.936,0,14.936l4.369,2.522V383.84L196.852,381.318z"></path> <circle style="fill:#FED322;" cx="197.322" cy="389.345" r="2.447"></circle> <polygon style="fill:#2487FF;" points="332.009,336.455 458.702,263.314 458.699,351.084 332.009,424.225 "></polygon> <polygon style="fill:#FFFFFF;" points="65.953,168.238 15.297,197.485 243.335,329.142 294.025,299.879 "></polygon> <path style="fill:#C60024;" d="M40.636,212.113l-25.339-14.628v14.623l0,0c0,0.002,0,0.003,0,0.005 c0,8.049,5.701,17.923,12.67,21.943c6.969,4.02,12.67,0.726,12.67-7.32c0-0.122-0.014-0.25-0.016-0.373 C40.634,222.957,40.636,212.113,40.636,212.113z"></path> <path style="fill:#E0E0E2;" d="M65.973,226.742l-25.339-14.628v14.623l0,0c0,0.002,0,0.003,0,0.005 c0,8.049,5.701,17.923,12.67,21.943s12.67,0.726,12.67-7.32c0-0.122-0.014-0.25-0.016-0.373 C65.972,237.586,65.973,226.742,65.973,226.742z"></path> <path style="fill:#C60024;" d="M91.31,241.371l-25.339-14.628v14.623l0,0c0,0.002,0,0.003,0,0.005 c0,8.049,5.701,17.923,12.67,21.943c6.969,4.02,12.67,0.726,12.67-7.32c0-0.122-0.014-0.25-0.016-0.373 C91.309,252.215,91.31,241.371,91.31,241.371z"></path> <path style="fill:#E0E0E2;" d="M116.648,255.999l-25.339-14.628v14.623l0,0c0,0.002,0,0.003,0,0.005 c0,8.049,5.701,17.923,12.67,21.943c6.969,4.021,12.67,0.726,12.67-7.32c0-0.122-0.014-0.25-0.016-0.373 C116.646,266.844,116.648,255.999,116.648,255.999z"></path> <path style="fill:#C60024;" d="M141.985,270.627l-25.339-14.628v14.622l0,0c0,0.002,0,0.003,0,0.005 c0,8.049,5.701,17.923,12.67,21.943c6.969,4.02,12.67,0.726,12.67-7.32c0-0.122-0.014-0.25-0.016-0.373 C141.984,281.471,141.985,270.627,141.985,270.627z"></path> <path style="fill:#E0E0E2;" d="M167.322,285.256l-25.339-14.628v14.622l0,0c0,0.002,0,0.003,0,0.005 c0,8.049,5.701,17.923,12.67,21.943c6.969,4.021,12.67,0.726,12.67-7.32c0-0.122-0.014-0.25-0.016-0.373 C167.321,296.1,167.322,285.256,167.322,285.256z"></path> <path style="fill:#C60024;" d="M192.66,299.885l-25.339-14.628v14.622l0,0c0,0.002,0,0.003,0,0.005 c0,8.049,5.701,17.923,12.67,21.943c6.969,4.021,12.67,0.726,12.67-7.32c0-0.122-0.014-0.25-0.016-0.373 C192.658,310.729,192.66,299.885,192.66,299.885z"></path> <path style="fill:#E0E0E2;" d="M217.998,314.514l-25.339-14.628v14.622l0,0c0,0.002,0,0.003,0,0.005 c0,8.049,5.701,17.923,12.67,21.943c6.969,4.02,12.67,0.726,12.67-7.32c0-0.122-0.014-0.25-0.016-0.373 C217.995,325.358,217.998,314.514,217.998,314.514z"></path> <path style="fill:#C60024;" d="M243.335,329.142l-25.339-14.628v14.622l0,0c0,0.002,0,0.003,0,0.005 c0,8.049,5.701,17.923,12.67,21.943c6.969,4.021,12.67,0.726,12.67-7.32c0-0.122-0.014-0.25-0.016-0.373 C243.334,339.986,243.335,329.142,243.335,329.142z"></path> <g> <path style="fill:#FE0B37;" d="M40.634,212.114c0,0,50.678-29.259,50.676-29.259c-0.002,0.001-25.357-14.617-25.357-14.617 s-51.867,28.548-50.657,29.247C16.507,198.184,40.634,212.114,40.634,212.114z"></path> <path style="fill:#FE0B37;" d="M91.307,241.373c0,0,50.678-29.259,50.676-29.259c-0.002,0.001-25.357-14.617-25.357-14.617 s-51.867,28.548-50.657,29.247C67.18,227.443,91.307,241.373,91.307,241.373z"></path> <path style="fill:#FE0B37;" d="M141.98,270.63c0,0,50.678-29.259,50.676-29.259c-0.002,0.001-25.357-14.617-25.357-14.617 s-51.867,28.548-50.657,29.247C117.853,256.701,141.98,270.63,141.98,270.63z"></path> <path style="fill:#FE0B37;" d="M192.653,299.889c0,0,50.678-29.259,50.676-29.259s-25.357-14.617-25.357-14.617 s-51.867,28.548-50.657,29.247C168.526,285.959,192.653,299.889,192.653,299.889z"></path> <path style="fill:#FE0B37;" d="M243.326,329.146c0,0,50.678-29.259,50.676-29.259c-0.002,0.001-25.357-14.617-25.357-14.617 s-51.867,28.548-50.657,29.247C219.199,315.217,243.326,329.146,243.326,329.146z"></path> </g> <polygon style="fill:#E0E0E2;" points="94.86,118.044 94.86,195.994 247.088,283.884 256.52,278.508 256.52,200.384 104.594,112.67 "></polygon> <polygon style="fill:#C6C5CB;" points="247.088,283.884 256.52,278.508 256.52,200.384 247.088,205.76 "></polygon> <polygon style="fill:#FFFFFF;" points="94.86,118.044 104.594,112.67 256.52,200.384 247.088,205.76 "></polygon> <g> <path style="fill:#A50020;" d="M114.239,154.913c-1.032,0.332-1.833,1.044-2.42,2.097c-0.587,1.063-0.875,2.496-0.88,4.289 c-0.004,1.37,0.172,2.647,0.531,3.831c0.357,1.193,0.904,2.378,1.622,3.542c0.718,1.164,1.626,2.33,2.704,3.507 c1.088,1.181,2.365,2.421,3.838,3.737c1.216,1.108,2.313,2.105,3.299,3.01c0.985,0.905,1.824,1.754,2.518,2.55 c0.694,0.806,1.224,1.576,1.6,2.326c0.376,0.75,0.563,1.509,0.56,2.269c-0.007,2.435-1.657,2.696-4.959,0.789 c-1.192-0.689-2.35-1.525-3.472-2.508c-1.132-0.979-2.159-1.987-3.085-3.004c-0.925-1.018-1.721-1.961-2.406-2.831 c-0.676-0.875-1.147-1.54-1.403-1.985l-2.667,4.403c1.789,2.504,3.81,4.795,6.071,6.901c2.254,2.1,4.542,3.827,6.858,5.164 c1.5,0.866,2.942,1.502,4.315,1.92c1.382,0.413,2.602,0.505,3.659,0.286c1.057-0.229,1.901-0.828,2.522-1.821 c0.63-0.988,0.944-2.426,0.949-4.319c0.004-1.636-0.224-3.14-0.683-4.52c-0.46-1.381-1.118-2.718-1.964-4.007 c-0.856-1.294-1.891-2.563-3.125-3.808c-1.225-1.24-2.596-2.526-4.095-3.865c-1.157-0.994-2.177-1.908-3.06-2.714 c-0.883-0.806-1.61-1.562-2.193-2.263c-0.574-0.696-1.019-1.377-1.318-2.033c-0.307-0.661-0.451-1.356-0.449-2.086 c0.003-1.261,0.41-2.015,1.217-2.249c0.817-0.229,2.044,0.134,3.699,1.09c0.927,0.535,1.835,1.188,2.735,1.974 c0.891,0.781,1.722,1.586,2.493,2.417c0.763,0.825,1.413,1.596,1.952,2.302c0.531,0.711,0.899,1.239,1.103,1.585l2.667-4.057 c-1.36-1.852-2.953-3.69-4.769-5.528c-1.824-1.833-3.821-3.381-5.992-4.634h-0.001c-1.561-0.901-3.028-1.502-4.384-1.8 C116.464,154.559,115.271,154.57,114.239,154.913z"></path> <polygon style="fill:#A50020;" points="158.522,192.226 144.533,184.15 144.574,169.83 138.587,166.373 138.487,201.794 144.473,205.25 144.516,190.132 158.504,198.208 158.462,213.326 164.406,216.758 164.506,181.338 158.562,177.906 "></polygon> <path style="fill:#A50020;" d="M195.024,204.396c-1.299-2.448-2.864-4.724-4.705-6.833c-1.833-2.114-3.864-3.811-6.094-5.098 c-2.17-1.253-4.187-1.924-6.042-2.007c-1.856-0.094-3.454,0.305-4.806,1.193c-1.351,0.888-2.412,2.191-3.19,3.904 c-0.769,1.727-1.162,3.762-1.168,6.127c-0.006,2.266,0.348,4.682,1.07,7.261c0.715,2.584,1.729,5.095,3.046,7.533 c1.307,2.443,2.882,4.695,4.715,6.769c1.841,2.079,3.881,3.771,6.145,5.078c2.17,1.253,4.179,1.918,6.043,2.007 c1.846,0.089,3.446-0.31,4.779-1.189c1.343-0.874,2.386-2.166,3.146-3.879c0.761-1.713,1.144-3.742,1.152-6.108 c0.006-2.227-0.356-4.638-1.071-7.212C197.329,209.361,196.323,206.854,195.024,204.396z M192.481,219.552 c-0.398,1.182-0.985,2.126-1.752,2.809c-0.767,0.693-1.713,1.054-2.83,1.091s-2.396-0.356-3.845-1.193 c-1.424-0.822-2.683-1.885-3.797-3.189c-1.113-1.313-2.054-2.736-2.814-4.28c-0.769-1.539-1.349-3.138-1.747-4.799 c-0.408-1.676-0.601-3.268-0.597-4.796c0.004-1.469,0.206-2.784,0.596-3.98c0.398-1.182,0.969-2.126,1.726-2.805 c0.758-0.678,1.704-1.03,2.83-1.062c1.134-0.026,2.422,0.371,3.871,1.208c1.39,0.803,2.64,1.851,3.754,3.144 c1.114,1.294,2.046,2.701,2.814,4.251c0.761,1.535,1.357,3.143,1.765,4.81c0.416,1.682,0.626,3.284,0.622,4.812 C193.072,217.041,192.871,218.366,192.481,219.552z"></path> <path style="fill:#A50020;" d="M225.886,224.298c-0.485-1.701-1.159-3.354-2.03-4.973c-0.863-1.613-1.899-3.11-3.097-4.493 c-1.199-1.373-2.502-2.461-3.926-3.283l-13.071-7.546l-0.1,35.42l5.995,3.462l0.033-11.875l7.299,4.214 c1.415,0.817,2.72,1.244,3.905,1.258c1.194,0.028,2.209-0.275,3.052-0.883c0.835-0.624,1.49-1.498,1.957-2.651 c0.467-1.142,0.703-2.467,0.707-3.964C226.615,227.552,226.379,225.994,225.886,224.298z M219.421,229.034 c-0.749,0.595-1.669,0.587-2.766-0.047l-6.948-4.01l0.032-11.482l6.69,3.862c0.514,0.297,1.029,0.722,1.534,1.261 c0.506,0.538,0.95,1.17,1.326,1.891c0.376,0.72,0.674,1.495,0.904,2.348c0.23,0.854,0.347,1.721,0.345,2.618 C220.534,227.239,220.162,228.425,219.421,229.034z"></path> </g> </g></svg>